<svg xmlns="http://www.w3.org/2000/svg" viewBox="0 0 98 96" role="img" aria-label="GitHub">
  <path fill="#ffffff" fill-rule="evenodd" clip-rule="evenodd" d="M48.854 0C21.839 0 0 22 0 49.217c0 21.756 13.993 40.172 33.405 46.69 2.427.49 3.316-1.059 3.316-2.362 0-1.141-.08-5.052-.08-9.127-13.59 2.934-16.436-5.787-16.436-5.787-2.204-5.704-5.358-7.228-5.358-7.228-4.409-3.028.334-3.092.334-3.092 4.889.345 7.411 5.022 7.411 5.022 4.312 7.424 11.306 5.285 14.066 4.041.434-3.143 1.699-5.285 3.093-6.499-10.866-1.236-22.298-5.462-22.298-24.283 0-5.379 1.871-9.782 4.933-13.226-.492-1.222-2.147-6.275.469-13.089 0 0 4.024-1.329 13.175 5.054a45.661 45.661 0 0 1 12.015-1.619c4.076 0 8.158.549 12.015 1.619 9.149-6.383 13.17-5.054 13.17-5.054 2.621 6.814.977 11.867.488 13.089 3.065 3.444 4.933 7.847 4.933 13.226 0 18.895-11.454 23.011-22.344 24.214 1.759 1.521 3.321 4.516 3.321 9.126 0 6.597-.06 11.897-.06 13.526 0 1.304.891 2.853 3.316 2.364 19.412-6.52 33.405-24.935 33.405-46.691C97.707 22 75.788 0 48.854 0z"/>
</svg>
