<?xml version="1.0" encoding="utf-8"?>
<!-- Generator: Adobe Illustrator 28.0.0, SVG Export Plug-In . SVG Version: 6.00 Build 0)  -->
<svg version="1.1" id="Layer_1" xmlns="http://www.w3.org/2000/svg" xmlns:xlink="http://www.w3.org/1999/xlink" x="0px" y="0px"
	 viewBox="0 0 492.4 196.8" style="enable-background:new 0 0 492.4 196.8;" xml:space="preserve">
<style type="text/css">
	.st0{fill:#FFFFFF;}
</style>
<g>
	<path class="st0" d="M340.4,59.7c-5.1-11.9-12.2-22.3-21.2-31.1c-9-8.8-19.7-15.8-32.2-20.9C274.5,2.6,261,0,246.4,0
		c-14.6,0-28.1,2.6-40.5,7.7c-10.3,4.2-19.3,9.9-27.3,16.7c0.1,0.1,0.2,0.2,0.2,0.2c9.5,9.3,17,20.4,22.4,32.9
		c1.6,3.7,3,7.8,4.2,12.4c1.6-2.7,3.3-5.3,5.5-7.6c4.2-4.6,9.3-8.2,15.2-10.9c5.9-2.7,12.4-4.1,19.6-4.1c7.2,0,13.8,1.4,19.8,4.2
		c6,2.8,11.1,6.5,15.5,11.2c3.3,3.5,5.8,7.6,7.9,11.9c2.8-1.1,5.8-1.7,9-1.7h46.9C343.6,68.4,342.2,64,340.4,59.7L340.4,59.7z"/>
	<path class="st0" d="M152.1,78.7c-10.9,0-19.6,8.8-19.6,19.7c0,10.9,8.8,19.6,19.6,19.6h43.4c10.9,0,19.7-8.8,19.7-19.6
		c0-10.9-8.8-19.7-19.7-19.7H152.1L152.1,78.7z"/>
	<path class="st0" d="M301.7,78.7c-10.9,0-19.6,8.8-19.6,19.6c0,10.9,8.8,19.6,19.6,19.6h43.4c10.9,0,19.7-8.8,19.7-19.6
		c0-10.9-8.8-19.6-19.7-19.6H301.7L301.7,78.7z"/>
	<path class="st0" d="M169.3,172.1c-9.5-9.3-17-20.3-22.4-32.9c-1.6-3.7-3-7.9-4.3-12.6c-1.6,2.8-3.4,5.5-5.5,7.8
		c-4.2,4.6-9.2,8.2-15.2,10.9c-6,2.7-12.6,4.1-19.8,4.1c-7.2,0-13.8-1.4-19.8-4.2c-6-2.8-11.1-6.5-15.3-11.2
		c-4.2-4.7-7.5-10.1-9.9-16.2c-2.3-6.1-3.5-12.6-3.5-19.5v-0.5c0-6.8,1.1-13.3,3.4-19.5c2.3-6.1,5.5-11.5,9.8-16.1
		c4.2-4.6,9.3-8.2,15.2-10.9c5.9-2.7,12.4-4.1,19.6-4.1c7.2,0,13.8,1.4,19.8,4.2c6,2.8,11.1,6.5,15.5,11.2c2.9,3.2,5.3,6.8,7.3,10.6
		c1.4-0.2,2.8-0.4,4.3-0.4h51.2c0.4,0,0.7,0.1,1.1,0.1c-1.2-4.5-2.6-9-4.4-13.3c-5.1-11.9-12.2-22.3-21.2-31.1
		c-9-8.8-19.7-15.8-32.2-20.9C130.3,2.6,116.8,0,102.2,0C87.6,0,74.1,2.6,61.6,7.7c-12.4,5.1-23.2,12.2-32.4,21.1
		C20,37.7,12.8,48.2,7.7,60.1C2.6,72.1,0,84.9,0,98.4v0.5c0,13.5,2.6,26.2,7.7,38.1c5.1,11.9,12.2,22.3,21.2,31.1
		c9,8.8,19.7,15.8,32.2,20.9c12.4,5.1,25.9,7.7,40.5,7.7c14.6,0,28.1-2.6,40.5-7.7c10.3-4.2,19.3-9.9,27.3-16.7
		C169.4,172.3,169.4,172.2,169.3,172.1L169.3,172.1z"/>
	<path class="st0" d="M484.7,59.7c-5.1-11.9-12.2-22.3-21.2-31.1c-9-8.8-19.7-15.8-32.2-20.9C418.9,2.6,405.4,0,390.8,0
		c-14.6,0-28.1,2.6-40.5,7.7c-10.3,4.3-19.3,9.9-27.4,16.8c0.1,0.1,0.1,0.1,0.2,0.2c9.5,9.3,17,20.4,22.4,32.9
		c1.6,3.8,3,7.9,4.4,12.8c1.6-2.9,3.4-5.6,5.6-8c4.2-4.6,9.2-8.2,15.2-10.9c6-2.7,12.6-4.1,19.8-4.1c7.2,0,13.8,1.4,19.8,4.2
		c6,2.8,11.1,6.5,15.3,11.2c4.2,4.7,7.5,10.1,9.9,16.2c2.3,6.1,3.5,12.6,3.5,19.5v0.5c0,6.8-1.1,13.3-3.4,19.5
		c-2.3,6.1-5.5,11.5-9.8,16.1c-4.2,4.6-9.3,8.2-15.2,10.9c-5.9,2.7-12.4,4.1-19.6,4.1c-7.2,0-13.8-1.4-19.8-4.2
		c-6-2.8-11.1-6.5-15.4-11.2c-2.8-3.1-5.1-6.5-7-10.2h-4.5c0,0,0,0,0,0H293c-0.4,0-0.7-0.1-1.1-0.1c1.2,4.5,2.6,9,4.4,13.3
		c5.1,11.9,12.2,22.3,21.2,31.1c9,8.8,19.7,15.8,32.2,20.9c12.4,5.1,25.9,7.7,40.5,7.7c14.6,0,28.1-2.6,40.5-7.7
		c12.4-5.1,23.2-12.2,32.4-21.1c9.2-8.9,16.3-19.4,21.5-31.4c5.1-12,7.7-24.7,7.7-38.2v-0.5C492.4,84.3,489.9,71.6,484.7,59.7
		L484.7,59.7z"/>
	<path class="st0" d="M313.6,172.1c-9.5-9.3-17-20.3-22.4-32.9c-1.6-3.8-3-8-4.3-12.7c-1.6,2.9-3.5,5.5-5.6,7.9
		c-4.2,4.6-9.2,8.2-15.2,10.9c-6,2.7-12.6,4.1-19.8,4.1c-7.2,0-13.8-1.4-19.8-4.2c-6-2.8-11.1-6.5-15.3-11.2
		c-2.9-3.2-5.2-6.8-7.2-10.7c-1.5,0.3-3,0.5-4.5,0.5h-51.2c-0.3,0-0.5-0.1-0.8-0.1c1.2,4.5,2.6,9,4.4,13.3
		c5.1,11.9,12.2,22.3,21.2,31.1c9,8.8,19.7,15.8,32.2,20.9c12.4,5.1,25.9,7.7,40.5,7.7c14.6,0,28.1-2.6,40.5-7.7
		c10.3-4.2,19.4-9.9,27.4-16.8C313.8,172.2,313.7,172.2,313.6,172.1L313.6,172.1z"/>
</g>
</svg>
