<?xml version="1.0" encoding="utf-8"?>
<!-- Generator: Adobe Illustrator 28.0.0, SVG Export Plug-In . SVG Version: 6.00 Build 0)  -->
<svg version="1.1" id="Layer_1" xmlns="http://www.w3.org/2000/svg" xmlns:xlink="http://www.w3.org/1999/xlink" x="0px" y="0px"
	 viewBox="0 0 492.4 196.8" style="enable-background:new 0 0 492.4 196.8;" xml:space="preserve">
<style type="text/css">
	.st0{clip-path:url(#SVGID_00000164471656135796298560000005813993069233574315_);}
	.st1{clip-path:url(#SVGID_00000019642091977911469160000004794725863702804380_);}
	.st2{clip-path:url(#SVGID_00000049190636457192275160000006766450548972944534_);}
	.st3{clip-path:url(#SVGID_00000021097484821049816410000015223270875984606377_);}
	.st4{clip-path:url(#SVGID_00000080199391034828746410000017474322563461047722_);}
	.st5{clip-path:url(#SVGID_00000070814566987701548060000006491054875013691561_);}
</style>
<g>
	<g>
		<defs>
			<path id="SVGID_1_" d="M340.4,59.7c-5.1-11.9-12.2-22.3-21.2-31.1c-9-8.8-19.7-15.8-32.2-20.9C274.5,2.6,261,0,246.4,0
				c-14.6,0-28.1,2.6-40.5,7.7c-10.3,4.2-19.3,9.9-27.3,16.7c0.1,0.1,0.2,0.2,0.2,0.2c9.5,9.3,17,20.4,22.4,32.9
				c1.6,3.7,3,7.8,4.2,12.4c1.6-2.7,3.3-5.3,5.5-7.6c4.2-4.6,9.3-8.2,15.2-10.9c5.9-2.7,12.4-4.1,19.6-4.1c7.2,0,13.8,1.4,19.8,4.2
				c6,2.8,11.1,6.5,15.5,11.2c3.3,3.5,5.8,7.6,7.9,11.9c2.8-1.1,5.8-1.7,9-1.7h46.9C343.6,68.4,342.2,64,340.4,59.7L340.4,59.7z"/>
		</defs>
		
			<linearGradient id="SVGID_00000106870012864270320160000000222767011152416161_" gradientUnits="userSpaceOnUse" x1="178.536" y1="37.3174" x2="344.786" y2="37.3174">
			<stop  offset="0" style="stop-color:#0586BF"/>
			<stop  offset="1" style="stop-color:#00BCE7"/>
		</linearGradient>
		<use xlink:href="#SVGID_1_"  style="overflow:visible;fill:url(#SVGID_00000106870012864270320160000000222767011152416161_);"/>
		<clipPath id="SVGID_00000132790696095645217890000009630598028298599053_">
			<use xlink:href="#SVGID_1_"  style="overflow:visible;"/>
		</clipPath>
		<g style="clip-path:url(#SVGID_00000132790696095645217890000009630598028298599053_);">
			<defs>
				<rect id="SVGID_00000091719087677715763170000001065485043026761891_" x="178.5" y="0" width="166.2" height="74.6"/>
			</defs>
			
				<linearGradient id="SVGID_00000043423681548874619550000012970695397890720669_" gradientUnits="userSpaceOnUse" x1="178.536" y1="37.3174" x2="344.786" y2="37.3174">
				<stop  offset="0" style="stop-color:#0586BF"/>
				<stop  offset="1" style="stop-color:#00BCE7"/>
			</linearGradient>
			
				<use xlink:href="#SVGID_00000091719087677715763170000001065485043026761891_"  style="overflow:visible;fill:url(#SVGID_00000043423681548874619550000012970695397890720669_);"/>
			<clipPath id="SVGID_00000057106473178126172480000001686922235443232400_">
				<use xlink:href="#SVGID_00000091719087677715763170000001065485043026761891_"  style="overflow:visible;"/>
			</clipPath>
		</g>
	</g>
	<g>
		<defs>
			<path id="SVGID_00000090274856174077980780000000663905914523134594_" d="M152.1,78.7c-10.9,0-19.6,8.8-19.6,19.6
				c0,10.9,8.8,19.6,19.6,19.6h43.4c10.9,0,19.7-8.8,19.7-19.6c0-10.9-8.8-19.6-19.7-19.6H152.1L152.1,78.7z"/>
		</defs>
		
			<linearGradient id="SVGID_00000106143963971797488630000003715304226881310857_" gradientUnits="userSpaceOnUse" x1="132.5" y1="98.3864" x2="215.234" y2="98.3864">
			<stop  offset="0" style="stop-color:#0586BF"/>
			<stop  offset="1" style="stop-color:#00BCE7"/>
		</linearGradient>
		
			<use xlink:href="#SVGID_00000090274856174077980780000000663905914523134594_"  style="overflow:visible;fill:url(#SVGID_00000106143963971797488630000003715304226881310857_);"/>
		<clipPath id="SVGID_00000000928941613345134360000003650677554142054064_">
			<use xlink:href="#SVGID_00000090274856174077980780000000663905914523134594_"  style="overflow:visible;"/>
		</clipPath>
		<g style="clip-path:url(#SVGID_00000000928941613345134360000003650677554142054064_);">
			<defs>
				<rect id="SVGID_00000012457418500142679250000012366646114164970116_" x="132.5" y="78.7" width="82.7" height="39.3"/>
			</defs>
			
				<linearGradient id="SVGID_00000093176779810398568090000006041631328206937484_" gradientUnits="userSpaceOnUse" x1="132.5" y1="98.3864" x2="215.234" y2="98.3864">
				<stop  offset="0" style="stop-color:#0586BF"/>
				<stop  offset="1" style="stop-color:#00BCE7"/>
			</linearGradient>
			
				<use xlink:href="#SVGID_00000012457418500142679250000012366646114164970116_"  style="overflow:visible;fill:url(#SVGID_00000093176779810398568090000006041631328206937484_);"/>
			<clipPath id="SVGID_00000036967626133544194230000001533125394904665262_">
				<use xlink:href="#SVGID_00000012457418500142679250000012366646114164970116_"  style="overflow:visible;"/>
			</clipPath>
		</g>
	</g>
	<g>
		<defs>
			<path id="SVGID_00000050638082415376038860000018271573769493566638_" d="M301.7,78.7c-10.9,0-19.6,8.8-19.6,19.6
				c0,10.9,8.8,19.6,19.6,19.6h43.4c10.9,0,19.7-8.8,19.7-19.6c0-10.9-8.8-19.6-19.7-19.6H301.7L301.7,78.7z"/>
		</defs>
		
			<linearGradient id="SVGID_00000040568640337441143420000018434468361026577284_" gradientUnits="userSpaceOnUse" x1="282.084" y1="98.3859" x2="364.818" y2="98.3859">
			<stop  offset="0" style="stop-color:#0586BF"/>
			<stop  offset="1" style="stop-color:#00BCE7"/>
		</linearGradient>
		
			<use xlink:href="#SVGID_00000050638082415376038860000018271573769493566638_"  style="overflow:visible;fill:url(#SVGID_00000040568640337441143420000018434468361026577284_);"/>
		<clipPath id="SVGID_00000064350403882835388720000007263586502281161114_">
			<use xlink:href="#SVGID_00000050638082415376038860000018271573769493566638_"  style="overflow:visible;"/>
		</clipPath>
		<g style="clip-path:url(#SVGID_00000064350403882835388720000007263586502281161114_);">
			<defs>
				<rect id="SVGID_00000178171302666695387800000014438122554635995277_" x="282.1" y="78.7" width="82.7" height="39.3"/>
			</defs>
			
				<linearGradient id="SVGID_00000148622887804114519870000002510576150596742046_" gradientUnits="userSpaceOnUse" x1="282.084" y1="98.3859" x2="364.818" y2="98.3859">
				<stop  offset="0" style="stop-color:#0586BF"/>
				<stop  offset="1" style="stop-color:#00BCE7"/>
			</linearGradient>
			
				<use xlink:href="#SVGID_00000178171302666695387800000014438122554635995277_"  style="overflow:visible;fill:url(#SVGID_00000148622887804114519870000002510576150596742046_);"/>
			<clipPath id="SVGID_00000023984089039032614390000012668288216888808853_">
				<use xlink:href="#SVGID_00000178171302666695387800000014438122554635995277_"  style="overflow:visible;"/>
			</clipPath>
		</g>
	</g>
	<g>
		<defs>
			<path id="SVGID_00000017501501324710689760000004367179437194070160_" d="M169.3,172.1c-9.5-9.3-17-20.3-22.4-32.9
				c-1.6-3.7-3-7.9-4.3-12.6c-1.6,2.8-3.4,5.5-5.5,7.8c-4.2,4.6-9.2,8.2-15.2,10.9c-6,2.7-12.6,4.1-19.8,4.1
				c-7.2,0-13.8-1.4-19.8-4.2c-6-2.8-11.1-6.5-15.3-11.2c-4.2-4.7-7.5-10.1-9.9-16.2c-2.3-6.1-3.5-12.6-3.5-19.5v-0.5
				c0-6.8,1.1-13.3,3.4-19.5c2.3-6.1,5.5-11.5,9.8-16.1c4.2-4.6,9.3-8.2,15.2-10.9c5.9-2.7,12.4-4.1,19.6-4.1
				c7.2,0,13.8,1.4,19.8,4.2c6,2.8,11.1,6.5,15.5,11.2c2.9,3.2,5.3,6.8,7.3,10.6c1.4-0.2,2.8-0.4,4.3-0.4h51.2
				c0.4,0,0.7,0.1,1.1,0.1c-1.2-4.5-2.6-9-4.4-13.3c-5.1-11.9-12.2-22.3-21.2-31.1c-9-8.8-19.7-15.8-32.2-20.9
				C130.3,2.6,116.8,0,102.2,0C87.6,0,74.1,2.6,61.6,7.7c-12.4,5.1-23.2,12.2-32.4,21.1C20,37.7,12.8,48.2,7.7,60.1
				C2.6,72.1,0,84.9,0,98.4v0.5c0,13.5,2.6,26.2,7.7,38.1c5.1,11.9,12.2,22.3,21.2,31.1c9,8.8,19.7,15.8,32.2,20.9
				c12.4,5.1,25.9,7.7,40.5,7.7c14.6,0,28.1-2.6,40.5-7.7c10.3-4.2,19.3-9.9,27.3-16.7C169.4,172.3,169.4,172.2,169.3,172.1
				L169.3,172.1z"/>
		</defs>
		
			<linearGradient id="SVGID_00000002348191485841201580000008494056395562149261_" gradientUnits="userSpaceOnUse" x1="0" y1="98.3883" x2="200.541" y2="98.3883">
			<stop  offset="0" style="stop-color:#0586BF"/>
			<stop  offset="1" style="stop-color:#00BCE7"/>
		</linearGradient>
		
			<use xlink:href="#SVGID_00000017501501324710689760000004367179437194070160_"  style="overflow:visible;fill:url(#SVGID_00000002348191485841201580000008494056395562149261_);"/>
		<clipPath id="SVGID_00000111173536025245591060000014021056616280555679_">
			<use xlink:href="#SVGID_00000017501501324710689760000004367179437194070160_"  style="overflow:visible;"/>
		</clipPath>
		<g style="clip-path:url(#SVGID_00000111173536025245591060000014021056616280555679_);">
			<defs>
				<rect id="SVGID_00000037651596004386177160000013237517098234222512_" y="0" width="200.5" height="196.8"/>
			</defs>
			
				<linearGradient id="SVGID_00000074416634547642486480000008261333359367938215_" gradientUnits="userSpaceOnUse" x1="0" y1="98.3883" x2="200.541" y2="98.3883">
				<stop  offset="0" style="stop-color:#0586BF"/>
				<stop  offset="1" style="stop-color:#00BCE7"/>
			</linearGradient>
			
				<use xlink:href="#SVGID_00000037651596004386177160000013237517098234222512_"  style="overflow:visible;fill:url(#SVGID_00000074416634547642486480000008261333359367938215_);"/>
			<clipPath id="SVGID_00000061441555882592964510000007987692520086849961_">
				<use xlink:href="#SVGID_00000037651596004386177160000013237517098234222512_"  style="overflow:visible;"/>
			</clipPath>
		</g>
	</g>
	<g>
		<defs>
			<path id="SVGID_00000036243324916126296460000016267679310625244084_" d="M484.7,59.7c-5.1-11.9-12.2-22.3-21.2-31.1
				c-9-8.8-19.7-15.8-32.2-20.9C418.9,2.6,405.4,0,390.8,0c-14.6,0-28.1,2.6-40.5,7.7c-10.3,4.3-19.3,9.9-27.4,16.8
				c0.1,0.1,0.1,0.1,0.2,0.2c9.5,9.3,17,20.4,22.4,32.9c1.6,3.8,3,7.9,4.4,12.8c1.6-2.9,3.4-5.6,5.6-8c4.2-4.6,9.2-8.2,15.2-10.9
				c6-2.7,12.6-4.1,19.8-4.1c7.2,0,13.8,1.4,19.8,4.2c6,2.8,11.1,6.5,15.3,11.2c4.2,4.7,7.5,10.1,9.9,16.2
				c2.3,6.1,3.5,12.6,3.5,19.5v0.5c0,6.8-1.1,13.3-3.4,19.5c-2.3,6.1-5.5,11.5-9.8,16.1c-4.2,4.6-9.3,8.2-15.2,10.9
				c-5.9,2.7-12.4,4.1-19.6,4.1c-7.2,0-13.8-1.4-19.8-4.2c-6-2.8-11.1-6.5-15.4-11.2c-2.8-3.1-5.1-6.5-7-10.2h-4.5c0,0,0,0,0,0H293
				c-0.4,0-0.7-0.1-1.1-0.1c1.2,4.5,2.6,9,4.4,13.3c5.1,11.9,12.2,22.3,21.2,31.1c9,8.8,19.7,15.8,32.2,20.9
				c12.4,5.1,25.9,7.7,40.5,7.7c14.6,0,28.1-2.6,40.5-7.7c12.4-5.1,23.2-12.2,32.4-21.1c9.2-8.9,16.3-19.4,21.5-31.4
				c5.1-12,7.7-24.7,7.7-38.2v-0.5C492.4,84.3,489.9,71.6,484.7,59.7L484.7,59.7z"/>
		</defs>
		
			<linearGradient id="SVGID_00000068672580221914048600000017867813000174715264_" gradientUnits="userSpaceOnUse" x1="291.891" y1="98.388" x2="492.432" y2="98.388">
			<stop  offset="0" style="stop-color:#0586BF"/>
			<stop  offset="1" style="stop-color:#00BCE7"/>
		</linearGradient>
		
			<use xlink:href="#SVGID_00000036243324916126296460000016267679310625244084_"  style="overflow:visible;fill:url(#SVGID_00000068672580221914048600000017867813000174715264_);"/>
		<clipPath id="SVGID_00000040568098393505025520000004249026109997565091_">
			<use xlink:href="#SVGID_00000036243324916126296460000016267679310625244084_"  style="overflow:visible;"/>
		</clipPath>
		<g style="clip-path:url(#SVGID_00000040568098393505025520000004249026109997565091_);">
			<defs>
				<rect id="SVGID_00000070101851951688956160000002094599039325366957_" x="291.9" width="200.5" height="196.8"/>
			</defs>
			
				<linearGradient id="SVGID_00000127036932336143560690000016828035547576020405_" gradientUnits="userSpaceOnUse" x1="291.891" y1="98.388" x2="492.432" y2="98.388">
				<stop  offset="0" style="stop-color:#0586BF"/>
				<stop  offset="1" style="stop-color:#00BCE7"/>
			</linearGradient>
			
				<use xlink:href="#SVGID_00000070101851951688956160000002094599039325366957_"  style="overflow:visible;fill:url(#SVGID_00000127036932336143560690000016828035547576020405_);"/>
			<clipPath id="SVGID_00000023961548170341431970000015964407588093493638_">
				<use xlink:href="#SVGID_00000070101851951688956160000002094599039325366957_"  style="overflow:visible;"/>
			</clipPath>
		</g>
	</g>
	<g>
		<defs>
			<path id="SVGID_00000080898230483818547740000012928647882288733328_" d="M313.6,172.1c-9.5-9.3-17-20.3-22.4-32.9
				c-1.6-3.8-3-8-4.3-12.7c-1.6,2.9-3.5,5.5-5.6,7.9c-4.2,4.6-9.2,8.2-15.2,10.9c-6,2.7-12.6,4.1-19.8,4.1c-7.2,0-13.8-1.4-19.8-4.2
				c-6-2.8-11.1-6.5-15.3-11.2c-2.9-3.2-5.2-6.8-7.2-10.7c-1.5,0.3-3,0.5-4.5,0.5h-51.2c-0.3,0-0.5-0.1-0.8-0.1
				c1.2,4.5,2.6,9,4.4,13.3c5.1,11.9,12.2,22.3,21.2,31.1c9,8.8,19.7,15.8,32.2,20.9c12.4,5.1,25.9,7.7,40.5,7.7
				c14.6,0,28.1-2.6,40.5-7.7c10.3-4.2,19.4-9.9,27.4-16.8C313.8,172.2,313.7,172.2,313.6,172.1L313.6,172.1z"/>
		</defs>
		
			<linearGradient id="SVGID_00000125604502908310014280000012310876244152641955_" gradientUnits="userSpaceOnUse" x1="147.513" y1="160.0819" x2="313.843" y2="160.0819">
			<stop  offset="0" style="stop-color:#0586BF"/>
			<stop  offset="1" style="stop-color:#00BCE7"/>
		</linearGradient>
		
			<use xlink:href="#SVGID_00000080898230483818547740000012928647882288733328_"  style="overflow:visible;fill:url(#SVGID_00000125604502908310014280000012310876244152641955_);"/>
		<clipPath id="SVGID_00000001659143705962326790000010466526332911852733_">
			<use xlink:href="#SVGID_00000080898230483818547740000012928647882288733328_"  style="overflow:visible;"/>
		</clipPath>
		<g style="clip-path:url(#SVGID_00000001659143705962326790000010466526332911852733_);">
			<defs>
				<rect id="SVGID_00000073684201916955201860000015926083105799735197_" x="147.5" y="123.4" width="166.3" height="73.4"/>
			</defs>
			
				<linearGradient id="SVGID_00000113316730454559471700000013210189025999514263_" gradientUnits="userSpaceOnUse" x1="147.513" y1="160.0819" x2="313.843" y2="160.0819">
				<stop  offset="0" style="stop-color:#0586BF"/>
				<stop  offset="1" style="stop-color:#00BCE7"/>
			</linearGradient>
			
				<use xlink:href="#SVGID_00000073684201916955201860000015926083105799735197_"  style="overflow:visible;fill:url(#SVGID_00000113316730454559471700000013210189025999514263_);"/>
			<clipPath id="SVGID_00000055708201215608315500000001990627948892211372_">
				<use xlink:href="#SVGID_00000073684201916955201860000015926083105799735197_"  style="overflow:visible;"/>
			</clipPath>
		</g>
	</g>
</g>
</svg>
