<?xml version="1.0" encoding="utf-8"?>
<!-- Generator: Adobe Illustrator 28.0.0, SVG Export Plug-In . SVG Version: 6.00 Build 0)  -->
<svg version="1.1" id="Layer_1" xmlns="http://www.w3.org/2000/svg" xmlns:xlink="http://www.w3.org/1999/xlink" x="0px" y="0px"
	 viewBox="0 0 720 170.2" style="enable-background:new 0 0 720 170.2;" xml:space="preserve">
<style type="text/css">
	.st0{fill:#FFFFFF;}
</style>
<g>
	<polygon class="st0" points="437.4,0.5 459.6,0.5 459.6,6.3 443.8,6.3 443.8,12.5 457.7,12.5 457.7,18.3 443.8,18.3 443.8,29.6 
		437.4,29.6 437.4,0.5 	"/>
	<polygon class="st0" points="465.3,0.5 471.7,0.5 471.7,29.6 465.3,29.6 465.3,0.5 	"/>
	<polygon class="st0" points="479,0.5 484.9,0.5 498.5,18.4 498.5,0.5 504.8,0.5 504.8,29.6 499.4,29.6 485.3,11.1 485.3,29.6 
		479,29.6 479,0.5 	"/>
	<path class="st0" d="M510.3,15.1L510.3,15.1c0-8.4,6.5-15.1,15.5-15.1c9,0,15.4,6.7,15.4,15v0.1c0,8.3-6.5,15-15.5,15
		S510.3,23.4,510.3,15.1L510.3,15.1z M534.6,15.1L534.6,15.1c0.2-5-3.6-9.1-8.5-9.2c-0.1,0-0.2,0-0.3,0c-5.2,0-8.7,4.1-8.7,9.1V15
		c-0.2,4.9,3.6,9,8.5,9.2c0.1,0,0.2,0,0.3,0C531,24.2,534.6,20.1,534.6,15.1L534.6,15.1z"/>
	<path class="st0" d="M544.6,25.3l3.8-4.5c2.4,2.2,5.5,3.4,8.7,3.5c2.6,0,4.2-1,4.2-2.7v-0.1c0-1.6-1-2.5-5.9-3.7
		c-5.9-1.5-9.7-3.1-9.7-8.9V8.8C545.8,3.5,550,0,556,0c3.9-0.1,7.8,1.2,10.8,3.7l-3.3,4.8c-2.6-1.8-5.1-2.9-7.6-2.9
		c-2.5,0-3.7,1.1-3.7,2.5v0.1c0,1.9,1.3,2.5,6.3,3.8c5.9,1.5,9.2,3.7,9.2,8.7V21c0,5.8-4.4,9-10.7,9C552.4,30,548,28.4,544.6,25.3
		L544.6,25.3z"/>
	<path class="st0" d="M456.8,169.6c1.5-0.4,2.9-0.9,4.1-1.6c1.2-0.7,2.3-1.5,3.3-2.4c1-0.9,1.8-2,2.7-3.1l-7.1-5.1
		c-0.5,0.6-1.1,1.2-1.6,1.7c-0.5,0.5-1.1,0.9-1.7,1.3c-0.6,0.4-1.3,0.7-2,0.9c-0.7,0.2-1.5,0.3-2.4,0.3c-1.2,0-2.3-0.2-3.3-0.7
		c-1-0.5-1.9-1.1-2.6-1.9c-0.7-0.8-1.3-1.8-1.7-2.9c-0.4-1.1-0.6-2.3-0.6-3.6v-0.1c0-1.2,0.2-2.4,0.6-3.5c0.4-1.1,1-2.1,1.7-2.9
		c0.7-0.8,1.6-1.5,2.6-1.9c1-0.5,2.1-0.7,3.3-0.7c1.7,0,3.1,0.4,4.3,1.1c1.2,0.7,2.2,1.7,3.2,2.9l7.1-5.5c-0.7-1-1.6-2-2.6-2.9
		c-1-0.9-2-1.6-3.2-2.3c-1.2-0.6-2.5-1.1-3.9-1.5c-1.4-0.3-3-0.5-4.8-0.5c-2.6,0-5,0.5-7.2,1.4c-2.2,0.9-4.1,2.2-5.7,3.8
		c-1.6,1.6-2.9,3.5-3.8,5.7c-0.9,2.2-1.4,4.5-1.4,7v0.1c0,2.5,0.5,4.9,1.4,7.1c0.9,2.2,2.2,4,3.8,5.6c1.6,1.6,3.4,2.8,5.6,3.7
		c2.1,0.9,4.4,1.3,6.9,1.3C453.6,170.2,455.3,170,456.8,169.6L456.8,169.6z M485.3,160.9c-1.1-0.5-2-1.2-2.8-2
		c-0.8-0.8-1.4-1.8-1.8-2.9c-0.4-1.1-0.6-2.3-0.6-3.5v-0.1c0-1.2,0.2-2.4,0.6-3.5c0.4-1.1,1-2.1,1.8-2.9c0.8-0.8,1.7-1.5,2.7-2
		c1.1-0.5,2.2-0.7,3.6-0.7c1.3,0,2.5,0.3,3.6,0.8c1.1,0.5,2,1.2,2.8,2c0.8,0.8,1.4,1.8,1.8,2.9c0.4,1.1,0.6,2.3,0.6,3.5v0.1
		c0,1.2-0.2,2.4-0.6,3.5c-0.4,1.1-1,2.1-1.8,2.9c-0.8,0.8-1.7,1.5-2.7,2c-1.1,0.5-2.3,0.7-3.6,0.7
		C487.5,161.7,486.3,161.4,485.3,160.9L485.3,160.9z M496.1,168.8c2.2-0.9,4.2-2.2,5.9-3.8c1.7-1.6,3-3.5,3.9-5.7
		c0.9-2.2,1.4-4.5,1.4-6.9v-0.1c0-2.4-0.5-4.7-1.4-6.9c-0.9-2.1-2.2-4-3.8-5.6c-1.6-1.6-3.6-2.9-5.8-3.8c-2.2-0.9-4.7-1.4-7.3-1.4
		c-2.6,0-5.1,0.5-7.3,1.4c-2.2,0.9-4.2,2.2-5.9,3.8c-1.7,1.6-3,3.5-3.9,5.7c-0.9,2.2-1.4,4.5-1.4,6.9v0.1c0,2.4,0.5,4.7,1.4,6.9
		c0.9,2.1,2.2,4,3.8,5.6c1.6,1.6,3.6,2.9,5.8,3.8c2.2,0.9,4.7,1.4,7.3,1.4S493.8,169.8,496.1,168.8L496.1,168.8z M512.8,169.5h9.3
		v-18.8l14.6,18.8h8.3v-34.2h-9.3v18.1l-14.1-18.1h-8.9V169.5L512.8,169.5z M560.2,169.5h9.5v-25.9H580v-8.3h-30v8.3h10.3V169.5
		L560.2,169.5z M594.3,151.8v-8.2h6.2c1.6,0,2.9,0.3,3.8,1c0.9,0.7,1.4,1.7,1.4,3.1v0.1c0,1.2-0.4,2.2-1.3,3
		c-0.9,0.7-2.1,1.1-3.8,1.1H594.3L594.3,151.8z M584.8,169.5h9.5v-10.4h4.1h0.1l6.9,10.4h10.9l-8.2-11.9c2.1-0.9,3.9-2.2,5.1-4
		c1.3-1.7,1.9-3.9,1.9-6.5V147c0-3.4-1-6-3-8c-1.1-1.2-2.6-2.1-4.4-2.7c-1.8-0.7-4.1-1-6.7-1h-16.2V169.5L584.8,169.5z M634.3,160.9
		c-1.1-0.5-2-1.2-2.8-2c-0.8-0.8-1.4-1.8-1.8-2.9c-0.4-1.1-0.6-2.3-0.6-3.5v-0.1c0-1.2,0.2-2.4,0.6-3.5c0.4-1.1,1-2.1,1.8-2.9
		c0.8-0.8,1.7-1.5,2.7-2c1.1-0.5,2.2-0.7,3.6-0.7c1.3,0,2.5,0.3,3.6,0.8c1.1,0.5,2,1.2,2.8,2c0.8,0.8,1.4,1.8,1.8,2.9
		c0.4,1.1,0.6,2.3,0.6,3.5v0.1c0,1.2-0.2,2.4-0.6,3.5c-0.4,1.1-1,2.1-1.8,2.9c-0.8,0.8-1.7,1.5-2.7,2c-1.1,0.5-2.3,0.7-3.6,0.7
		C636.6,161.7,635.4,161.4,634.3,160.9L634.3,160.9z M645.2,168.8c2.2-0.9,4.2-2.2,5.9-3.8c1.7-1.6,3-3.5,3.9-5.7
		c0.9-2.2,1.4-4.5,1.4-6.9v-0.1c0-2.4-0.5-4.7-1.4-6.9c-0.9-2.1-2.2-4-3.8-5.6c-1.6-1.6-3.6-2.9-5.8-3.8c-2.2-0.9-4.7-1.4-7.3-1.4
		c-2.6,0-5.1,0.5-7.3,1.4c-2.2,0.9-4.2,2.2-5.9,3.8c-1.7,1.6-3,3.5-3.9,5.7c-0.9,2.2-1.4,4.5-1.4,6.9v0.1c0,2.4,0.5,4.7,1.4,6.9
		c0.9,2.1,2.2,4,3.8,5.6c1.6,1.6,3.6,2.9,5.8,3.8c2.2,0.9,4.7,1.4,7.3,1.4C640.5,170.2,642.9,169.8,645.2,168.8L645.2,168.8z
		 M661.9,169.5h26v-8.3h-16.6v-25.9h-9.5V169.5L661.9,169.5z M711.8,169.4c1.7-0.5,3.1-1.2,4.3-2.2c1.2-1,2.1-2.1,2.8-3.5
		c0.7-1.4,1-2.9,1-4.7v-0.1c0-1.6-0.3-3-0.9-4.1c-0.6-1.2-1.4-2.1-2.5-3c-1.1-0.8-2.5-1.5-4-2.1c-1.6-0.6-3.3-1.1-5.3-1.5
		c-1.2-0.3-2.1-0.5-2.9-0.8c-0.8-0.2-1.4-0.5-1.8-0.7c-0.4-0.2-0.8-0.5-0.9-0.8c-0.2-0.3-0.3-0.6-0.3-1v-0.1c0-0.6,0.3-1.1,0.9-1.6
		c0.6-0.4,1.4-0.6,2.6-0.6c1.5,0,3.1,0.3,4.8,0.9c1.6,0.6,3.2,1.4,4.8,2.5l4.7-6.7c-1.9-1.5-3.9-2.6-6.2-3.4
		c-2.3-0.8-4.9-1.2-7.8-1.2c-2.1,0-3.9,0.3-5.5,0.8c-1.6,0.5-3,1.3-4.2,2.3c-1.2,1-2,2.1-2.6,3.5c-0.6,1.3-0.9,2.8-0.9,4.4v0.1
		c0,1.8,0.3,3.2,1,4.4c0.7,1.2,1.6,2.2,2.7,3c1.2,0.8,2.5,1.4,4.1,2c1.6,0.5,3.3,1,5.1,1.4c1.2,0.3,2.1,0.5,2.9,0.8
		c0.7,0.2,1.3,0.5,1.8,0.8c0.4,0.3,0.7,0.5,0.9,0.8c0.2,0.3,0.2,0.6,0.2,1v0.1c0,0.7-0.3,1.3-1,1.7c-0.7,0.4-1.6,0.6-2.9,0.6
		c-4,0-7.7-1.4-11.1-4.1l-5.3,6.3c2.1,1.9,4.6,3.3,7.3,4.3c2.8,0.9,5.7,1.4,8.7,1.4C708.3,170.1,710.1,169.9,711.8,169.4
		L711.8,169.4z"/>
	<path class="st0" d="M456.8,122.9c1.5-0.4,2.9-0.9,4.1-1.6c1.2-0.7,2.3-1.5,3.3-2.4c1-0.9,1.8-2,2.7-3.1l-7.1-5.1
		c-0.5,0.6-1.1,1.2-1.6,1.7c-0.5,0.5-1.1,0.9-1.7,1.3c-0.6,0.4-1.3,0.7-2,0.9c-0.7,0.2-1.5,0.3-2.4,0.3c-1.2,0-2.3-0.2-3.3-0.7
		c-1-0.5-1.9-1.1-2.6-1.9c-0.7-0.8-1.3-1.8-1.7-2.9c-0.4-1.1-0.6-2.3-0.6-3.6v-0.1c0-1.2,0.2-2.4,0.6-3.5c0.4-1.1,1-2.1,1.7-2.9
		c0.7-0.8,1.6-1.5,2.6-1.9c1-0.5,2.1-0.7,3.3-0.7c1.7,0,3.1,0.4,4.3,1.1c1.2,0.7,2.2,1.7,3.2,2.9l7.1-5.5c-0.7-1-1.6-2-2.6-2.9
		c-1-0.9-2-1.6-3.2-2.3s-2.5-1.1-3.9-1.5c-1.4-0.3-3-0.5-4.8-0.5c-2.6,0-5,0.5-7.2,1.4c-2.2,0.9-4.1,2.2-5.7,3.8
		c-1.6,1.6-2.9,3.5-3.8,5.7c-0.9,2.2-1.4,4.5-1.4,7v0.1c0,2.5,0.5,4.9,1.4,7.1c0.9,2.2,2.2,4,3.8,5.6c1.6,1.6,3.4,2.8,5.6,3.7
		c2.1,0.9,4.4,1.3,6.9,1.3C453.6,123.5,455.3,123.3,456.8,122.9L456.8,122.9z M471.6,122.9h26v-8.3H481V88.6h-9.5V122.9L471.6,122.9
		z M516,114.2c-1.1-0.5-2-1.2-2.8-2c-0.8-0.8-1.4-1.8-1.8-2.9c-0.4-1.1-0.6-2.3-0.6-3.5v-0.1c0-1.2,0.2-2.4,0.6-3.5
		c0.4-1.1,1-2.1,1.8-2.9c0.8-0.8,1.7-1.5,2.7-2c1.1-0.5,2.2-0.7,3.6-0.7c1.3,0,2.5,0.3,3.6,0.8c1.1,0.5,2,1.2,2.8,2
		c0.8,0.8,1.4,1.8,1.8,2.9c0.4,1.1,0.6,2.3,0.6,3.5v0.1c0,1.2-0.2,2.4-0.6,3.5c-0.4,1.1-1,2.1-1.8,2.9c-0.8,0.8-1.7,1.5-2.7,2
		c-1.1,0.5-2.3,0.7-3.6,0.7S517.1,114.7,516,114.2L516,114.2z M526.9,122.1c2.2-0.9,4.2-2.2,5.9-3.8c1.7-1.6,3-3.5,3.9-5.7
		c0.9-2.2,1.4-4.5,1.4-6.9v-0.1c0-2.4-0.5-4.7-1.4-6.9c-0.9-2.1-2.2-4-3.8-5.6c-1.6-1.6-3.6-2.9-5.8-3.8c-2.2-0.9-4.7-1.4-7.3-1.4
		c-2.6,0-5.1,0.5-7.3,1.4c-2.2,0.9-4.2,2.2-5.9,3.8c-1.7,1.6-3,3.5-3.9,5.7c-0.9,2.2-1.4,4.5-1.4,6.9v0.1c0,2.4,0.5,4.7,1.4,6.9
		c0.9,2.1,2.2,4,3.8,5.6c1.6,1.6,3.6,2.9,5.8,3.8c2.2,0.9,4.7,1.4,7.3,1.4S524.6,123.1,526.9,122.1L526.9,122.1z M565.6,122.6
		c2-0.6,3.6-1.6,5-2.9c1.4-1.3,2.5-2.9,3.2-4.9c0.8-2,1.1-4.4,1.1-7.2v-19h-9.7v19.3c0,2.4-0.6,4.2-1.7,5.3
		c-1.1,1.1-2.7,1.7-4.6,1.7c-1.9,0-3.4-0.6-4.6-1.8c-1.1-1.2-1.7-3-1.7-5.5v-19h-9.7v19.2c0,2.7,0.4,5,1.1,7c0.7,2,1.8,3.6,3.2,4.9
		c1.4,1.3,3,2.2,5,2.9c2,0.6,4.2,0.9,6.6,0.9C561.5,123.5,563.7,123.2,565.6,122.6L565.6,122.6z M590.8,114.4V97h3.9
		c2.8,0,5.1,0.8,6.9,2.3c1.7,1.5,2.6,3.6,2.6,6.4v0.1c0,2.8-0.9,4.9-2.6,6.4c-1.7,1.5-4,2.2-6.9,2.2H590.8L590.8,114.4z
		 M581.4,122.9h13c3.1,0,5.8-0.4,8.2-1.3c2.4-0.9,4.5-2.1,6.1-3.6c1.7-1.5,2.9-3.3,3.8-5.4c0.9-2.1,1.3-4.4,1.3-6.9v-0.1
		c0-2.5-0.4-4.7-1.3-6.8c-0.9-2.1-2.1-3.9-3.8-5.4c-1.6-1.5-3.7-2.7-6.1-3.5c-2.4-0.8-5.1-1.2-8.2-1.2h-13.2V122.9L581.4,122.9z"/>
	<path class="st0" d="M456.8,76.3c1.5-0.4,2.9-0.9,4.1-1.6c1.2-0.7,2.3-1.5,3.3-2.4c1-0.9,1.8-2,2.7-3.1l-7.1-5.1
		c-0.5,0.6-1.1,1.2-1.6,1.7c-0.5,0.5-1.1,0.9-1.7,1.3c-0.6,0.4-1.3,0.7-2,0.9c-0.7,0.2-1.5,0.3-2.4,0.3c-1.2,0-2.3-0.2-3.3-0.7
		c-1-0.5-1.9-1.1-2.6-1.9c-0.7-0.8-1.3-1.8-1.7-2.9c-0.4-1.1-0.6-2.3-0.6-3.6V59c0-1.2,0.2-2.4,0.6-3.5c0.4-1.1,1-2.1,1.7-2.9
		c0.7-0.8,1.6-1.5,2.6-1.9c1-0.5,2.1-0.7,3.3-0.7c1.7,0,3.1,0.4,4.3,1.1c1.2,0.7,2.2,1.7,3.2,2.9l7.1-5.5c-0.7-1-1.6-2-2.6-2.9
		c-1-0.9-2-1.6-3.2-2.3s-2.5-1.1-3.9-1.5c-1.4-0.3-3-0.5-4.8-0.5c-2.6,0-5,0.5-7.2,1.4c-2.2,0.9-4.1,2.2-5.7,3.8
		c-1.6,1.6-2.9,3.5-3.8,5.7c-0.9,2.2-1.4,4.5-1.4,7v0.1c0,2.5,0.5,4.9,1.4,7.1c0.9,2.2,2.2,4,3.8,5.6c1.6,1.6,3.4,2.8,5.6,3.7
		c2.1,0.9,4.4,1.3,6.9,1.3C453.6,76.8,455.3,76.6,456.8,76.3L456.8,76.3z M485.3,67.5c-1.1-0.5-2-1.2-2.8-2
		c-0.8-0.8-1.4-1.8-1.8-2.9c-0.4-1.1-0.6-2.3-0.6-3.5V59c0-1.2,0.2-2.4,0.6-3.5c0.4-1.1,1-2.1,1.8-2.9c0.8-0.8,1.7-1.5,2.7-2
		c1.1-0.5,2.2-0.7,3.6-0.7c1.3,0,2.5,0.3,3.6,0.8c1.1,0.5,2,1.2,2.8,2c0.8,0.8,1.4,1.8,1.8,2.9c0.4,1.1,0.6,2.3,0.6,3.5v0.1
		c0,1.2-0.2,2.4-0.6,3.5c-0.4,1.1-1,2.1-1.8,2.9c-0.8,0.8-1.7,1.5-2.7,2c-1.1,0.5-2.3,0.7-3.6,0.7C487.5,68.3,486.3,68,485.3,67.5
		L485.3,67.5z M496.1,75.4c2.2-0.9,4.2-2.2,5.9-3.8c1.7-1.6,3-3.5,3.9-5.7c0.9-2.2,1.4-4.5,1.4-6.9V59c0-2.4-0.5-4.7-1.4-6.9
		c-0.9-2.2-2.2-4-3.8-5.6c-1.6-1.6-3.6-2.9-5.8-3.8c-2.2-0.9-4.7-1.4-7.3-1.4c-2.6,0-5.1,0.5-7.3,1.4c-2.2,0.9-4.2,2.2-5.9,3.8
		c-1.7,1.6-3,3.5-3.9,5.7c-0.9,2.2-1.4,4.5-1.4,6.9v0.1c0,2.4,0.5,4.7,1.4,6.9c0.9,2.2,2.2,4,3.8,5.6c1.6,1.6,3.6,2.9,5.8,3.8
		c2.2,0.9,4.7,1.4,7.3,1.4S493.8,76.4,496.1,75.4L496.1,75.4z M512.8,76.2h9.3V56.6l8.7,13.3h0.2l8.7-13.4v19.6h9.4V41.9h-10
		L531,55.2l-8.2-13.2h-10V76.2L512.8,76.2z M555.9,76.2h9.3V56.6l8.7,13.3h0.2l8.7-13.4v19.6h9.4V41.9h-10l-8.2,13.2L566,41.9h-10
		V76.2L555.9,76.2z M612.7,67.5c-1.1-0.5-2-1.2-2.8-2s-1.4-1.8-1.8-2.9c-0.4-1.1-0.6-2.3-0.6-3.5V59c0-1.2,0.2-2.4,0.6-3.5
		c0.4-1.1,1-2.1,1.8-2.9c0.8-0.8,1.7-1.5,2.7-2c1.1-0.5,2.2-0.7,3.6-0.7c1.3,0,2.5,0.3,3.6,0.8c1.1,0.5,2,1.2,2.8,2
		c0.8,0.8,1.4,1.8,1.8,2.9c0.4,1.1,0.6,2.3,0.6,3.5v0.1c0,1.2-0.2,2.4-0.6,3.5c-0.4,1.1-1,2.1-1.8,2.9c-0.8,0.8-1.7,1.5-2.7,2
		c-1.1,0.5-2.3,0.7-3.6,0.7C615,68.3,613.8,68,612.7,67.5L612.7,67.5z M623.6,75.4c2.2-0.9,4.2-2.2,5.9-3.8c1.7-1.6,3-3.5,3.9-5.7
		c0.9-2.2,1.4-4.5,1.4-6.9V59c0-2.4-0.5-4.7-1.4-6.9c-0.9-2.2-2.2-4-3.8-5.6c-1.6-1.6-3.6-2.9-5.8-3.8c-2.2-0.9-4.7-1.4-7.3-1.4
		c-2.6,0-5.1,0.5-7.3,1.4c-2.2,0.9-4.2,2.2-5.9,3.8s-3,3.5-3.9,5.7c-0.9,2.2-1.4,4.5-1.4,6.9v0.1c0,2.4,0.5,4.7,1.4,6.9
		c0.9,2.2,2.2,4,3.8,5.6c1.6,1.6,3.6,2.9,5.8,3.8c2.2,0.9,4.7,1.4,7.3,1.4S621.3,76.4,623.6,75.4L623.6,75.4z M640.3,76.2h9.3V57.4
		l14.6,18.8h8.3V41.9h-9.3V60l-14.1-18.1h-8.9V76.2L640.3,76.2z"/>
	<path class="st0" d="M274.6,53.9c-4.1-9.6-9.9-18-17.1-25.1c-7.3-7.1-15.9-12.8-26-16.9c-10-4.1-20.9-6.2-32.7-6.2
		c-11.8,0-22.7,2.1-32.7,6.2c-8.3,3.4-15.6,8-22.1,13.5c0.1,0.1,0.1,0.1,0.2,0.2c7.7,7.5,13.7,16.4,18.1,26.5c1.3,3,2.4,6.3,3.4,10
		c1.3-2.2,2.7-4.3,4.4-6.1c3.4-3.7,7.5-6.6,12.2-8.8c4.7-2.2,10-3.3,15.9-3.3c5.8,0,11.2,1.1,16,3.4c4.8,2.3,9,5.3,12.5,9.1
		c2.6,2.8,4.7,6.1,6.4,9.6c2.3-0.9,4.7-1.4,7.2-1.4h37.9C277.2,61,276.1,57.4,274.6,53.9L274.6,53.9z"/>
	<path class="st0" d="M122.7,69.3c-8.8,0-15.9,7.1-15.9,15.9c0,8.8,7.1,15.8,15.9,15.8h35c8.8,0,15.9-7.1,15.9-15.8
		c0-8.8-7.1-15.9-15.9-15.9H122.7L122.7,69.3z"/>
	<path class="st0" d="M243.4,69.3c-8.8,0-15.9,7.1-15.9,15.9c0,8.8,7.1,15.9,15.9,15.9h35c8.8,0,15.9-7.1,15.9-15.9
		c0-8.8-7.1-15.9-15.9-15.9H243.4L243.4,69.3z"/>
	<path class="st0" d="M136.6,144.6c-7.6-7.5-13.7-16.4-18.1-26.5c-1.3-3-2.4-6.4-3.5-10.2c-1.3,2.3-2.7,4.4-4.5,6.3
		c-3.4,3.7-7.4,6.6-12.2,8.8c-4.8,2.2-10.1,3.3-16,3.3c-5.8,0-11.2-1.1-16-3.4c-4.8-2.2-8.9-5.3-12.4-9c-3.4-3.8-6.1-8.1-8-13.1
		c-1.9-4.9-2.8-10.2-2.8-15.7v-0.4c0-5.5,0.9-10.8,2.7-15.7c1.8-4.9,4.4-9.3,7.9-13c3.4-3.7,7.5-6.7,12.2-8.8
		c4.7-2.2,10-3.3,15.9-3.3c5.8,0,11.2,1.1,16,3.4c4.8,2.3,9,5.3,12.5,9.1c2.4,2.6,4.2,5.5,5.9,8.6c1.1-0.2,2.3-0.3,3.4-0.3h41.3
		c0.3,0,0.6,0.1,0.9,0.1c-0.9-3.7-2.1-7.2-3.6-10.7c-4.1-9.6-9.9-18-17.1-25.1c-7.3-7.1-15.9-12.8-25.9-16.9
		c-10-4.1-20.9-6.2-32.7-6.2c-11.8,0-22.7,2.1-32.7,6.2c-10,4.1-18.8,9.8-26.2,17c-7.4,7.2-13.2,15.6-17.3,25.3
		C2.1,63.9,0,74.2,0,85.1v0.4c0,10.9,2.1,21.2,6.2,30.7c4.1,9.6,9.9,18,17.1,25.1c7.3,7.1,15.9,12.8,25.9,16.9
		c10,4.1,20.9,6.2,32.7,6.2c11.8,0,22.7-2.1,32.7-6.2c8.3-3.4,15.6-8,22.1-13.5C136.7,144.7,136.6,144.7,136.6,144.6L136.6,144.6z"
		/>
	<path class="st0" d="M391.1,53.9c-4.1-9.6-9.8-18-17.1-25.1c-7.3-7.1-15.9-12.8-26-16.9c-10-4.1-20.9-6.2-32.7-6.2
		c-11.8,0-22.7,2.1-32.7,6.2c-8.3,3.4-15.6,8-22.1,13.5c0.1,0,0.1,0.1,0.2,0.1c7.7,7.5,13.7,16.4,18.1,26.5
		c1.3,3.1,2.4,6.4,3.5,10.3c1.3-2.3,2.8-4.5,4.5-6.4c3.4-3.7,7.4-6.6,12.2-8.8c4.8-2.2,10.1-3.3,16-3.3c5.8,0,11.2,1.1,16,3.4
		c4.8,2.2,8.9,5.3,12.4,9c3.4,3.8,6.1,8.1,8,13.1c1.9,4.9,2.8,10.2,2.8,15.7v0.4c0,5.5-0.9,10.8-2.7,15.7c-1.8,4.9-4.4,9.3-7.9,13
		c-3.4,3.7-7.5,6.6-12.2,8.8c-4.7,2.2-10,3.3-15.9,3.3c-5.8,0-11.2-1.1-16-3.4c-4.8-2.3-9-5.3-12.5-9.1c-2.3-2.5-4.1-5.3-5.7-8.2
		h-3.6c0,0,0,0,0,0h-41.3c-0.3,0-0.6-0.1-0.9-0.1c0.9,3.7,2.1,7.2,3.6,10.7c4.1,9.6,9.9,18,17.1,25.1c7.3,7.1,15.9,12.8,25.9,16.9
		c10,4.1,20.9,6.2,32.7,6.2c11.8,0,22.7-2.1,32.7-6.2c10-4.1,18.8-9.8,26.2-17c7.4-7.2,13.2-15.6,17.3-25.3c4.1-9.7,6.2-20,6.2-30.9
		v-0.4C397.3,73.8,395.2,63.5,391.1,53.9L391.1,53.9z"/>
	<path class="st0" d="M253,144.6c-7.7-7.5-13.7-16.4-18.1-26.5c-1.3-3.1-2.5-6.4-3.5-10.3c-1.3,2.3-2.8,4.5-4.5,6.4
		c-3.4,3.7-7.4,6.6-12.2,8.8c-4.8,2.2-10.1,3.3-16,3.3c-5.8,0-11.2-1.1-16-3.4c-4.8-2.2-8.9-5.3-12.4-9c-2.3-2.6-4.2-5.5-5.8-8.6
		c-1.2,0.2-2.4,0.4-3.7,0.4h-41.3c-0.2,0-0.4-0.1-0.6-0.1c1,3.6,2.1,7.2,3.6,10.7c4.1,9.6,9.8,18,17.1,25.1
		c7.3,7.1,15.9,12.8,26,16.9c10,4.1,20.9,6.2,32.7,6.2c11.8,0,22.7-2.1,32.7-6.2c8.3-3.4,15.6-8,22.1-13.5
		C253.1,144.7,253.1,144.6,253,144.6L253,144.6z"/>
</g>
</svg>
