<?xml version="1.0" encoding="UTF-8"?>
<svg width="1200pt" height="1200pt" version="1.1" viewBox="0 0 1200 1200" xmlns="http://www.w3.org/2000/svg">
 <path d="m261.6 750c7.1992 0 13.199-1.1992 18-3.6016 4.8008-2.3984 8.3984-6 10.801-10.801 2.3984-4.8008 3.6016-9.6016 3.6016-15.602s-1.1992-10.801-3.6016-15.602c-2.3984-4.8008-6-8.3984-10.801-10.801-4.8008-2.3984-10.801-3.6016-18-3.6016h-25.199v60z"/>
 <path d="m466.8 716.4c-3.6016-8.3984-9.6016-14.398-16.801-19.199-7.1992-3.6016-16.801-6-28.801-6h-24v115.2h24c10.801 0 20.398-2.3984 28.801-6 7.1992-3.6016 13.199-10.801 18-19.199 3.6016-8.3984 6-19.199 6-32.398-1.1992-13.199-3.6016-24-7.1992-32.402z"/>
 <path d="m1099.2 300-258-259.2c-7.1992-7.1992-16.801-10.801-27.602-10.801h-592.8c-21.602 0-38.398 18-38.398 38.398v490.8h-50.402c-24 0-43.199 19.199-43.199 43.199v291.6c0 24 19.199 43.199 43.199 43.199h49.199v192c0 21.602 18 38.398 38.398 38.398h850.8c21.602 0 38.398-18 38.398-38.398l0.003906-801.6c2.3984-9.6016-1.1992-20.402-9.6016-27.602zm-901.2 538.8v-180h70.801c13.199 0 25.199 2.3984 34.801 7.1992 9.6016 4.8008 16.801 12 21.602 21.602 4.8008 9.6016 7.1992 19.199 7.1992 31.199s-2.3984 22.801-7.1992 31.199c-4.8008 9.6016-13.199 16.801-22.801 21.602-9.6016 4.8008-21.602 7.1992-36 7.1992h-32.398v58.801h-36.004zm835.2 253.2h-772.8v-153.6h459.6c24 0 43.199-19.199 43.199-43.199v-292.8c0-24-19.199-43.199-43.199-43.199h-459.6v-451.2h489.6v244.8c0 21.602 18 38.398 38.398 38.398h244.8zm-675.6-253.2v-180h64.801c18 0 33.602 3.6016 46.801 10.801 13.199 7.1992 22.801 18 30 31.199s10.801 30 10.801 48c0 19.199-3.6016 34.801-10.801 48s-16.801 24-30 31.199-28.801 10.801-46.801 10.801zm292.8-105.6v31.199h-74.398v74.398h-38.398v-180h120v31.199l-81.602 0.003906v43.199z"/>
</svg>
