<svg width="1331.95" height="191.23" viewBox="0 0 1331.95 191.23" xmlns="http://www.w3.org/2000/svg">
  <g transform="matrix(1.3333333,0,0,-1.3333333,0,191.22667)">
    <g transform="scale(0.1)">
      <path d="m 9391.39,122.738 c -27.97,0 -57.5,7.774 -91.67,23.313 L 9259.31,31.082 C 9305.92,7.76953 9350.99,0 9400.72,0 c 127.4,0 198.89,63.6992 250.16,208.199 l 338.74,935.431 h -149.16 l -222.2,-643.282 -226.87,643.282 h -156.94 l 307.66,-831.31 -21.76,-57.5 C 9484.62,161.59 9458.2,122.738 9391.39,122.738 Z m -539.18,923.012 c 104.09,0 180.24,-71.473 192.67,-237.742 h -394.67 c 17.08,167.812 96.32,237.742 202,237.742 z m 327.86,-546.969 -111.88,65.266 c -51.28,-93.234 -118.09,-136.738 -206.66,-136.738 -118.09,0 -205.12,80.808 -214.43,271.929 h 542.28 v 52.817 c 0,265.725 -135.16,407.115 -335.62,407.115 -209.77,0 -355.85,-147.62 -355.85,-422.654 0,-279.696 146.08,-421.086 360.51,-421.086 156.95,0 250.18,65.269 321.65,183.351 z m -803.33,-51.273 c -52.84,0 -76.15,21.762 -76.15,76.148 V 1420.21 H 8151.43 V 505.004 c 0,-111.883 60.59,-177.152 192.67,-177.152 27.98,0 57.49,3.117 85.46,10.886 v 113.426 c -18.63,-3.113 -35.74,-4.656 -52.82,-4.656 z M 7327.91,332.512 h 150.7 v 609.121 c 63.73,68.377 132.08,102.567 203.58,102.567 73.03,0 125.85,-45.071 125.85,-133.645 V 332.512 h 150.73 v 571.84 c 0,167.808 -93.23,256.388 -237.74,256.388 -85.46,0 -167.81,-29.53 -242.42,-101 v 83.89 h -150.7 V 332.512 Z m -686.81,211.34 c 0,76.125 43.5,130.511 183.35,166.269 l 146.07,35.734 V 511.207 c -60.61,-51.273 -128.99,-87.008 -198.91,-87.008 -88.55,0 -130.51,55.93 -130.51,119.653 z m 104.11,-226.883 c 80.78,0 166.25,40.422 234.62,97.922 21.77,-59.071 73.04,-87.039 155.39,-87.039 20.2,0 40.39,4.66 59.04,9.339 v 107.204 c -9.31,-1.543 -18.65,-1.543 -27.96,-1.543 -34.19,0 -49.73,15.539 -49.73,49.726 v 410.207 c 0,155.385 -99.43,257.955 -279.7,257.955 -136.73,0 -261.04,-65.27 -343.39,-167.838 l 94.78,-80.781 c 71.49,83.895 153.84,128.969 231.53,128.969 119.65,0 150.73,-68.383 150.73,-149.188 v -35.734 l -161.61,-37.277 c -236.19,-54.387 -315.43,-153.844 -315.43,-279.696 0,-116.547 79.24,-222.226 251.73,-222.226 z m -407.12,125.883 c -62.15,0 -90.11,24.851 -90.11,82.347 v 503.461 h 152.27 v 114.97 h -152.27 v 223.77 h -149.17 v -223.77 h -133.64 v -114.97 h 133.64 V 501.891 c 0,-113.422 63.7,-174.039 208.21,-174.039 29.53,0 59.04,4.66 93.23,10.886 v 107.227 c -24.85,-3.113 -37.28,-3.113 -62.16,-3.113 z M 5544.1,318.539 c 202.01,0 371.36,110.32 371.36,304.551 0,195.801 -132.08,257.953 -358.93,332.535 -136.74,45.045 -242.42,82.355 -242.42,189.575 0,113.43 88.58,161.59 197.35,161.59 114.99,0 208.23,-65.27 257.95,-172.47 l 122.74,63.7 c -73.03,161.61 -219.08,236.19 -380.69,236.19 -191.12,0 -351.17,-108.77 -351.17,-299.89 0,-180.265 130.52,-251.73 337.2,-317 149.16,-46.613 262.59,-85.461 262.59,-205.113 0,-116.539 -99.44,-166.242 -215.98,-166.242 -132.07,0 -239.3,63.695 -295.23,177.125 l -121.22,-71.469 c 76.15,-150.73 233.08,-233.082 416.45,-233.082 z m -1421.76,13.973 h 150.73 v 609.121 c 63.7,68.377 132.08,102.567 203.55,102.567 73.04,0 125.88,-45.071 125.88,-133.645 V 332.512 h 150.73 v 571.84 c 0,167.808 -93.23,256.388 -237.76,256.388 -85.47,0 -167.82,-29.53 -242.4,-101 v 83.89 H 4122.34 V 332.512 Z m -686.81,211.34 c 0,76.125 43.53,130.511 183.38,166.269 l 146.05,35.734 V 511.207 c -60.59,-51.273 -128.97,-87.008 -198.89,-87.008 -88.58,0 -130.54,55.93 -130.54,119.653 z m 104.12,-226.883 c 80.8,0 166.26,40.422 234.64,97.922 21.74,-59.071 73.02,-87.039 155.39,-87.039 20.19,0 40.39,4.66 59.04,9.339 v 107.204 c -9.34,-1.543 -18.65,-1.543 -27.96,-1.543 -34.19,0 -49.73,15.539 -49.73,49.726 v 410.207 c 0,155.385 -99.46,257.955 -279.7,257.955 -136.73,0 -261.04,-65.27 -343.41,-167.838 l 94.8,-80.781 c 71.46,83.895 153.81,128.969 231.51,128.969 119.65,0 150.73,-68.383 150.73,-149.188 v -35.734 l -161.59,-37.277 c -236.19,-54.387 -315.45,-153.844 -315.45,-279.696 0,-116.547 79.26,-222.226 251.73,-222.226 z m -938.52,419.547 c 0,223.765 93.23,307.684 202,307.684 76.15,0 125.85,-27.99 191.12,-85.462 V 514.32 c -65.27,-55.929 -116.54,-82.351 -191.12,-83.898 -108.77,0 -202,83.898 -202,306.094 z m 180.24,-417.977 c 88.57,0 152.29,34.191 212.88,85.461 v -59.039 c 0,-138.301 -48.16,-222.223 -205.12,-222.223 -88.55,0 -166.24,32.653 -233.07,76.153 L 2495.47,82.3516 C 2559.17,40.3906 2680.36,0 2796.9,0 c 214.46,0 349.62,122.738 349.62,323.199 v 820.431 h -147.61 v -66.81 c -60.59,49.73 -124.31,82.35 -214.43,82.35 -175.58,0 -332.51,-119.65 -332.51,-421.084 0,-303.004 156.93,-419.547 329.4,-419.547 z m -772.25,13.973 h 149.16 v 546.965 c 76.15,118.109 146.07,150.733 217.54,150.733 18.65,0 35.76,-1.55 48.18,-6.23 v 138.31 c -10.88,3.11 -27.96,6.22 -48.18,6.22 -74.58,0 -160.05,-54.38 -217.54,-155.39 v 130.51 H 2009.12 V 332.512 Z m -720.98,404.004 c 0,212.882 87,309.234 208.2,309.234 122.77,0 208.23,-96.352 208.23,-309.234 0,-212.86 -85.46,-307.657 -208.23,-307.657 -121.2,0 -208.2,94.797 -208.2,307.657 z m 208.2,422.654 c -215.97,0 -357.39,-150.73 -357.39,-422.654 0,-271.926 141.42,-421.086 357.39,-421.086 216,0 357.39,149.16 357.39,421.086 0,271.924 -141.39,422.654 -357.39,422.654 z M 0,332.512 H 142.938 L 141.391,1299.02 428.855,332.512 H 540.738 L 828.203,1295.91 V 332.512 H 980.477 V 1420.21 H 728.75 L 489.469,606.008 251.707,1420.21 H 0 v -1087.698 0"/>
    </g>
  </g>
</svg>
