<svg enable-background="new 0 0 39.5 52" height="360.555128" viewBox="0 0 39.5 52" width="277.350098" xmlns="http://www.w3.org/2000/svg"><path d="m39.539 45.623c0 1.717-.703 2.715-2.078 3.246-5.344 2.059-11.672 3.119-17.69 3.119-6.021 0-12.349-1.061-17.692-3.119-1.375-.531-2.079-1.529-2.079-3.246v-45.611h39.539z" fill="#005daa"/><path d="m10.604 27.808c-5.475-3.418-7.281-4.931-7.437-7.173-.026-.454.078-1.223.269-1.771l-.516-.342c-.412.658-.675 1.523-.675 2.316 0 1.296.413 2.276.922 3.059.769 1.184 1.578 1.929 3.572 3.425 2.148 1.611 3.614 3.492 4.458 5.462h.305v-2.235c2.901 1.648 5.461 3.196 6.72 5.966h.304c-.493-2.87-2.117-5.083-7.922-8.707" fill="#ffd200"/><path d="m35.822 36.519h-.374c0-2.042-1.873-2.601-3.834-2.601h-6.132c.198 1.008.289 2.187.138 3.301h-.306c-.567-4.592-3.161-6.864-6.789-9.301v2.092h-.305c-.965-2.158-3.082-4.18-5.086-5.616-.533-.38-1.088-.774-1.635-1.163v2.251h-.305c-.85-2.234-2.393-3.901-4.594-5.888-2.379-2.14-3.336-3.421-3.894-4.894-.338-.892-.432-1.613-.445-2.592-.021-1.751.866-3.333 1.968-3.923v.848c-.546.723-.829 1.642-.831 2.573-.003.861.203 1.817.631 2.631 1.339 2.548 5.849 5.676 8.711 7.599 8.905 5.972 10.683 7.014 12.161 10.183.165.353.329.827.466 1.38 1.286-.199 5.953-.911 6.812-1.047.167-.027.51-.068.688-.08.805-.508 1.431-1.156 1.98-1.964l-3.41-.265c-.177.391-.35.721-.503.984h-.28c.094-.346.175-.688.246-1.025l-.874-.062v-.188l.945-.117c.18-.965.267-1.879.284-2.732l-4.301-.245c-.021.442-.025.857-.01 1.244h-.274c-.094-.43-.166-.856-.22-1.271l-.942-.056v-.286l.896-.049c-.126-1.139-.134-2.2-.089-3.113l-2.513-.113c.117.222.24.443.326.688.544 1.517.414 3.293.236 4.112h-.305c-.045-.946-.362-2.107-.665-2.813-.695-1.639-2.254-3.089-4.87-4.769v2.094h-.305c-.869-2.75-3.035-4.281-6.254-5.934-2.656-1.363-3.481-3.006-3.331-5.548l.898.532c.229 2.376 2.055 3.75 3.968 3.736 1.126-.01 2.181-.16 3.199-.362 1.472-.299 2.834-.55 3.971-.149v-1.403h-.894c-.32.275-.968.594-1.921.611-1.047.018-3.029-.585-3.029-2.8 0-1.924 1.627-2.232 2.952-2.232.712 0 1.892-.025 2.292-.046.295-.02.517-.064.662-.208.15-.147.195-.299.229-.496.042-.239.042-.482.042-.895v-1.406h-6.143v2.435l-2.325-.885v-.583h1.112v-.967h-4.143v-2.02h-1.412c-.754 0-1.625.53-1.688 1.555-.057.983.385 1.812 1.398 1.812h.181v1.177h-.181c-1.775 0-3.111-1.332-3.111-3.1 0-1.844 1.569-3.248 3.468-3.248h2.996v2.021h11.655v2.987c0 .504-.029 1.179-.077 1.605-.036.312-.145.871-.733 1.321-.357.27-.893.379-1.761.383-.285.001-1.111-.012-2.101-.074-1.328-.085-1.706.429-1.76.905-.011.1-.011.197.002.29.622-.48 1.502-.821 2.5-.505 1.758.553 2.261.601 3.177-.118l.093.205c-.1.153-.275.373-.532.568h.849v4.602l2.644-1.586h7.424s3.136 1.639 3.651 1.909c.456.24.635.53.705.955.061.355-.033.805-.206 1.093-.109.18-.962 1.577-1.411 2.323 1.261 1.365 2.112 3.275 2.112 5.402 0 1.928-.713 4.414-3.03 6.262 1.02.334 1.673.89 2.186 1.621zm-16.551-24.781c-1.043-.229-1.625-.1-2.224.471.294.14.661.216 1.066.189.587-.042.949-.392 1.158-.66m-.601 6.631 2.938-1.761c-.578-.285-1.216-.468-1.972-.477-1.013-.018-2.722.446-3.547.575.369.251 1.679 1.089 2.581 1.663m13.113.187.407-.574-.63-.839.105-.187 1.771.955-.387 1.172c.287.138.55.31.899.542l1.146-1.882-2.967-1.55h-6.553l-5.32 3.2c.998.694 1.92 1.444 2.573 2.2 1.424-2.075 3.929-3.396 6.41-3.396.811.001 1.755.088 2.546.359m-.533 7.428c-.036-.979-.157-1.865-.322-2.646l-3.473-.157c-.237 1.057-.395 2.088-.467 3.03zm1.168-2.577c.111.897.125 1.736.066 2.511l3.441-.18c-.088-.782-.311-1.521-.643-2.199zm-1.752-1.126c-.36-1.243-.789-2.106-1.015-2.512-.144-.009-.291-.012-.436-.012-.243 0-.486.031-.721.056-.347.869-.63 1.746-.86 2.636zm.954-2.086c.257.691.45 1.357.591 2l2.102-.115c-.722-.832-1.645-1.485-2.693-1.885m3.869 8.875c.246-.599.403-1.174.45-1.902l-3.576-.203c-.163 1.002-.429 1.873-.715 2.586zm-8.819-8.734c-1.197.536-2.023 1.265-2.761 2.311l2.448-.128c.088-1.087.231-1.81.313-2.183" fill="#ffd200"/><g fill="#fff"><path d="m22.129 41.801c.998-.162 1.95-.938 1.95-2.111 0-1.057-.45-2.218-3.562-2.218h-5.254v.085c.159.049.412.178.577.338.356.351.475.87.489 1.562v7.863h4.353c2.394 0 4.127-.911 4.127-3.006.001-1.701-1.324-2.424-2.68-2.513m-2.24-3.392c1.114 0 1.869.243 1.869 1.431 0 1.268-1.011 1.617-2.166 1.617h-.995v-3.048zm.113 7.981h-1.405v-4.022h1.341c1.842 0 2.548.551 2.548 1.93-.001 1.491-.924 2.092-2.484 2.092"/><path d="m11.389 47.318h2.837l-3.622-4.629c1.451-.389 2.538-1.184 2.538-2.627 0-1.693-1.015-2.591-3.665-2.591h-5.482v.085c.203.07.428.201.577.346.383.379.498.957.498 1.737v7.679h2.275v-4.363h.83zm-4.043-8.909h1.531c1.277 0 1.943.374 1.943 1.728 0 1.21-.87 1.928-2.269 1.928h-1.205z"/><path d="m34.01 38.822c.607.342.793.795.798.799.028.033.094.022.094.022l.495-1.685s-.889-.639-3.005-.639c-3.202 0-5.599 1.613-5.599 5.143 0 3.977 2.855 5.01 5.374 5.01 2.341 0 3.263-.746 3.263-.746v-1.154s-.829.772-2.604.772c-1.463 0-3.617-.67-3.66-3.938-.044-3.021 1.273-4.004 3.035-4.004.984 0 1.475.231 1.809.42"/></g></svg>