<svg id="b608da00-2e30-4e05-becf-ff1d28389e9c" data-name="Logo" xmlns="http://www.w3.org/2000/svg" viewBox="0 0 437.1 282.15"><path d="M74.25,158.3c0-29.8,24.4-53,56.2-53,18.4,0,35.2,8.2,44.8,20.6l-13.8,13.8a39.54,39.54,0,0,0-30.8-15.2c-19,0-34.2,14.2-34.2,33.8,0,19.8,15.2,34,34.2,34a40,40,0,0,0,31.8-15.8l13.6,13.4c-9.2,13-26.8,21.6-45.6,21.6C98.65,211.5,74.25,188.3,74.25,158.3Z" fill="#255be3"/><path d="M194.05,108.9h21.8v99h-21.8Z" fill="#255be3"/><path d="M256.45,181.3v-54h-23.8V108.9h24.8V87.7l20.4-10v31.2h32.4v18.4h-32.4v50.4c0,10,5.6,14.4,16.2,14.4a38.41,38.41,0,0,0,16-3.4v18.8a47.56,47.56,0,0,1-20,4C270.65,211.5,256.45,200.9,256.45,181.3Z" fill="#255be3"/><path d="M327.45,108.9h21.8v99h-21.8Z" fill="#255be3"/><path d="M271.45,45.9a111.58,111.58,0,0,1,91.4,47.2h-25.4a88.78,88.78,0,0,0-132,0h-25.4A111.58,111.58,0,0,1,271.45,45.9Z" fill="#ff3c28"/></svg>