<?xml version="1.0" encoding="utf-8"?>
<!-- Generator: Adobe Illustrator 27.8.0, SVG Export Plug-In . SVG Version: 6.00 Build 0)  -->
<svg version="1.1" id="Layer_2_00000180330260399229003940000013511735444041707690_"
	 xmlns="http://www.w3.org/2000/svg" xmlns:xlink="http://www.w3.org/1999/xlink" x="0px" y="0px" width="180.4px" height="40px"
	 viewBox="0 0 180.4 40" style="enable-background:new 0 0 180.4 40;" xml:space="preserve">
<style type="text/css">
	.st0{fill:#EF7D3A;}
	.st1{fill:#00AEB9;}
	.st2{fill:#D4006A;}
	.st3{fill:#242424;}
</style>
<g id="Components">
	<g id="_5f3202e2-983f-4392-ba6a-51f025ce6488_1">
		<polygon class="st0" points="9.1,1 0,0 1.1,10 0,34.3 0,34.8 10.9,11.3 19.2,0 		"/>
		<polygon class="st1" points="40.1,13.9 27.9,31.4 12.6,40 30.1,39 40.1,40 39,30.1 		"/>
		<polygon class="st2" points="40.1,0 40.1,0 24.4,0 12.6,29.2 0.1,39.9 4.9,39.9 4.9,39.9 7.3,39.9 28,17.9 40.1,8.7 40.1,0 		"/>
		<path class="st3" d="M50,21.8h3c0.1,2.6,1.6,3.9,4.9,3.9c2.7,0,4.1-0.8,4.1-2.5c0-1.8-1.6-2.1-4.7-2.8c-4.6-1.1-6.8-2-6.8-5.1
			c0-3.3,2.5-4.9,6.9-4.9c4.8,0,7.3,2.1,7.3,6.2h-3c-0.2-2.6-1.4-3.6-4.5-3.6c-2.6,0-3.8,0.7-3.8,2.3c0,1.7,1.5,2,4.9,2.8
			c4.4,1.1,6.6,1.9,6.6,5c0,3.3-2.5,5.3-7.3,5.3C52.7,28.3,50,26.2,50,21.8L50,21.8z"/>
		<path class="st3" d="M66.7,21.1c0-3.7,1.5-7.2,6.9-7.2c4.3,0,6.3,2.3,6.3,5.8h-3c-0.2-2.2-1.1-3.4-3.4-3.4c-3,0-3.9,2.1-3.9,4.8
			c0,2.7,0.8,4.7,3.9,4.7c2.3,0,3.1-1.1,3.3-3.2h3c0,3.4-1.9,5.7-6.2,5.7C68.1,28.3,66.7,24.8,66.7,21.1L66.7,21.1z"/>
		<path class="st3" d="M81.2,21.1c0-3.7,1.4-7.2,6.9-7.2c5.4,0,6.9,3.5,6.9,7.2c0,3.7-1.5,7.2-7,7.2C82.6,28.3,81.2,24.8,81.2,21.1
			L81.2,21.1z M88.1,25.9c3.3,0,4-2.1,4-4.8c0-2.6-0.7-4.8-4-4.8c-3.3,0-4,2.2-4,4.8C84.2,23.7,84.9,25.9,88.1,25.9L88.1,25.9z"/>
		<path class="st3" d="M97.6,24.1v-7.6h-2v-1.8l2-0.6v-3.5h2.8v3.5h3.7v2.4h-3.6v7.6c0,1.3,0.6,1.9,3.6,1.8v2.4
			C99.6,28.5,97.6,27.4,97.6,24.1z"/>
		<path class="st3" d="M107,24.1v-7.6h-2v-2.3l2,0v-3.5h2.8v3.5h3.7v2.4H110v7.6c0,1.3,0.6,1.9,3.6,1.8v2.4
			C109,28.5,107,27.4,107,24.1L107,24.1z"/>
		<path class="st3" d="M122.1,10.6h3v15h6.6v2.5h-9.7L122.1,10.6L122.1,10.6z"/>
		<path class="st3" d="M132.6,21.1c0-3.7,1.4-7.2,6.9-7.2c5.4,0,6.9,3.5,6.9,7.2c0,3.7-1.5,7.2-7,7.2
			C134,28.3,132.6,24.8,132.6,21.1L132.6,21.1z M139.5,25.9c3.3,0,4-2.1,4-4.8c0-2.6-0.7-4.8-4-4.8c-3.3,0-4,2.2-4,4.8
			C135.6,23.7,136.3,25.9,139.5,25.9L139.5,25.9z"/>
		<path class="st3" d="M154.8,26.7c-2.9-0.4-4.2-0.6-4.2-1.3s0.9-0.7,3.8-0.8c5-0.1,6.1-2.2,6.1-4.9c0-2.1-0.7-3.1-1.6-3.5l2-2.1v0
			h-6.2c-1.8,0-6.9,0-6.9,5.2c0,1.7,0.5,3.1,2.1,4c-1.6,0.4-2.4,1-2.4,2.4c0,2.4,2,2.7,7,3.4c2.6,0.3,3.7,0.6,3.7,1.9
			c0,0.8-0.6,1.8-3.9,1.8c-2.1,0-3.1-0.4-3.5-1.2h-3.3c0.5,2.3,2.3,3.6,6.6,3.6c5.8,0,7.2-2.4,7.2-4.5
			C161.4,27.5,157.8,27.1,154.8,26.7L154.8,26.7z M154.2,16.6c2.7,0,3.3,1.2,3.3,2.8c0,1.8-0.6,3-3.3,3c-2.7,0-3.3-1.3-3.3-2.9
			C150.9,17.8,151.5,16.6,154.2,16.6L154.2,16.6z"/>
		<path class="st3" d="M164,8.4c1.3,0,2.1,0.4,2.1,1.8c0,1.4-0.8,1.8-2.1,1.8c-1.3,0-2.2-0.4-2.2-1.8C161.8,8.7,162.7,8.4,164,8.4z
			 M162.5,14.1h2.9v14h-2.9V14.1z"/>
		<path class="st3" d="M167.2,21.1c0-3.7,1.5-7.2,6.9-7.2c4.3,0,6.3,2.3,6.3,5.8h-3c-0.2-2.2-1.1-3.4-3.4-3.4c-3,0-3.9,2.1-3.9,4.8
			c0,2.7,0.8,4.7,3.9,4.7c2.3,0,3.1-1.1,3.3-3.2h3c0,3.4-1.9,5.7-6.2,5.7C168.7,28.3,167.2,24.8,167.2,21.1L167.2,21.1z"/>
	</g>
</g>
</svg>
